<svg xmlns="http://www.w3.org/2000/svg" xmlns:xlink="http://www.w3.org/1999/xlink" version="1.1" x="0px" y="0px" width="100px" height="100px" viewBox="0 0 100 100" enable-background="new 0 0 100 100" xml:space="preserve">
<g id="Captions">
</g>
<g id="Your_Icon">
	<path d="M49.998,4C24.596,4,4,24.597,4,50c0,25.405,20.596,46,45.998,46c25.406,0,46-20.595,46-46C95.998,24.597,75.404,4,49.998,4   z M49.998,86C30.117,86,14,69.882,14,50c0-19.883,16.117-36,35.998-36c19.885,0,36,16.117,36,36C85.998,69.882,69.883,86,49.998,86   z"/>
	<circle cx="36.5" cy="38.86" r="6.667"/>
	<circle cx="63.5" cy="38.86" r="6.667"/>
	<path d="M50,53.222c-9.399,0-17.956,4.443-22.332,11.596c-1.297,2.12-0.629,4.891,1.491,6.188c2.121,1.297,4.89,0.629,6.187-1.49   c2.711-4.431,8.462-7.293,14.654-7.293c6.19,0,11.941,2.862,14.652,7.293c0.848,1.387,2.327,2.152,3.843,2.152   c0.8,0,1.61-0.214,2.344-0.662c2.12-1.297,2.788-4.067,1.491-6.188C67.954,57.665,59.397,53.222,50,53.222z"/>
</g>
</svg>