<svg xmlns="http://www.w3.org/2000/svg" xmlns:xlink="http://www.w3.org/1999/xlink" version="1.1" x="0px" y="0px" width="100px" height="100px" viewBox="0 0 100 100" enable-background="new 0 0 100 100" xml:space="preserve">
<g id="Captions">
</g>
<g id="Your_Icon">
	<g>
		<path d="M67.559,26.725H32.439C35.217,31.948,41.484,38.547,50,45.013C58.516,38.547,64.781,31.948,67.559,26.725z"/>
		<path d="M81.127,85.741v-8.986c0-10.228-9.164-20.173-17.713-27.224c8.523-7.428,17.713-17.798,17.713-27.981v-7.291    c3.396-0.571,5.986-3.518,5.986-7.076C87.113,3.216,83.896,0,79.93,0H20.07c-3.967,0-7.184,3.216-7.184,7.183    c0,3.558,2.59,6.504,5.986,7.076v7.291c0,10.183,9.189,20.554,17.713,27.981c-8.551,7.051-17.713,16.996-17.713,27.224v8.986    c-3.396,0.57-5.986,3.518-5.986,7.075c0,3.967,3.217,7.184,7.184,7.184H79.93c3.967,0,7.184-3.217,7.184-7.184    C87.113,89.259,84.523,86.312,81.127,85.741z M73.943,81.923L50.016,63.95L26.055,81.927v-5.172    c0-10.817,16.746-23.264,22.225-27.047C42.801,45.65,26.055,32.367,26.055,21.55v-7.183h47.889v7.183    c0,10.817-16.744,24.101-22.225,28.158c5.48,3.783,22.225,16.229,22.225,27.047V81.923z"/>
	</g>
</g>
</svg>